HIERARCHY
ROOT joint_0
{
	OFFSET 0.000000 0.000000 0.000000
	CHANNELS 6 Xposition Yposition Zposition Zrotation Yrotation Xrotation 
	JOINT joint_1
	{
		OFFSET 1.363060 -1.794630 0.839290
		CHANNELS 3 Zrotation Yrotation Xrotation
		JOINT joint_2
		{
			OFFSET 2.448110 -6.726130 0.000000
			CHANNELS 3 Zrotation Yrotation Xrotation
			JOINT joint_3
			{
				OFFSET 2.562200 -7.039590 0.000000
				CHANNELS 3 Zrotation Yrotation Xrotation
				JOINT joint_4
				{
					OFFSET 0.157640 -0.433110 2.322550
					CHANNELS 3 Zrotation Yrotation Xrotation
					End Site
					{
						OFFSET 0.000000 0.000000 0.000000
					}
				}
			}
		}
	}
	JOINT joint_5
	{
		OFFSET -1.305520 -1.794630 0.839290
		CHANNELS 3 Zrotation Yrotation Xrotation
		JOINT joint_6
		{
			OFFSET -2.542530 -6.985550 0.000000
			CHANNELS 3 Zrotation Yrotation Xrotation
			JOINT joint_7
			{
				OFFSET -2.568260 -7.056230 0.000000
				CHANNELS 3 Zrotation Yrotation Xrotation
				JOINT joint_8
				{
					OFFSET -0.164730 -0.452590 2.363150
					CHANNELS 3 Zrotation Yrotation Xrotation
					End Site
					{
						OFFSET 0.000000 0.000000 0.000000
					}
				}
			}
		}
	}
	JOINT joint_9
	{
		OFFSET 0.028270 2.035590 -0.193380
		CHANNELS 3 Zrotation Yrotation Xrotation
		JOINT joint_10
		{
			OFFSET 0.056720 4.548850 -0.042750
			CHANNELS 3 Zrotation Yrotation Xrotation
			JOINT joint_11
			{
				OFFSET -0.054170 1.746240 0.172020
				CHANNELS 3 Zrotation Yrotation Xrotation
				JOINT joint_12
				{
					OFFSET 0.104070 1.761360 -0.123970
					CHANNELS 3 Zrotation Yrotation Xrotation
					End Site
					{
						OFFSET 0.000000 0.000000 0.000000
					}
				}
			}
			JOINT joint_13
			{
				OFFSET 3.362410 1.200890 -0.311210
				CHANNELS 3 Zrotation Yrotation Xrotation
				JOINT joint_14
				{
					OFFSET 5.783000 0.000000 0.000000
					CHANNELS 3 Zrotation Yrotation Xrotation
					JOINT joint_15
					{
						OFFSET 6.683559 0.000000 0.000000
						CHANNELS 3 Zrotation Yrotation Xrotation
						JOINT joint_16
						{
							OFFSET 0.000000 0.000000 0.000000
							CHANNELS 3 Zrotation Yrotation Xrotation
							End Site
							{
								OFFSET 0.000000 0.000000 0.000000
							}
						}
					}
				}
			}
			JOINT joint_17
			{
				OFFSET -2.136613 1.374050 -0.404650
				CHANNELS 3 Zrotation Yrotation Xrotation
				JOINT joint_18
				{
					OFFSET -0.741900 0.000000 0.000000
					CHANNELS 3 Zrotation Yrotation Xrotation
					JOINT joint_19
					{
						OFFSET -0.744170 0.000000 0.000000
						CHANNELS 3 Zrotation Yrotation Xrotation
						JOINT joint_20
						{
							OFFSET 0.000000 0.000000 0.000000
							CHANNELS 3 Zrotation Yrotation Xrotation
							End Site
							{
								OFFSET 0.000000 0.000000 0.000000
							}
						}
					}
				}
			}
		}
	}
}
MOTION
Frames: 7
Frame Time: 0.031667
-9.504039 13.213994 1.398569 -12.802456 78.930977 -3.364663 -2.812776 11.525791 -48.385811 -12.816134 18.814972 36.964184 -3.370046 2.114647 1.151087 -12.929445 12.014084 -0.953762 -2.129987 -15.117558 -21.677881 1.375369 -18.503942 82.234245 1.153196 -0.835440 -1.233113 -13.223429 -24.467890 -32.784924 0.968002 -3.656646 -5.880366 -4.907561 -1.296682 30.703415 2.524112 0.729584 12.628971 1.243000 1.228154 -31.056126 -79.238640 -74.648651 11.336003 22.309546 -36.867039 -5.310410 8.123135 -4.110494 0.160231 0.000000 0.000000 0.000000 73.152534 75.762474 41.343384 -23.039074 20.711269 -34.014847 -15.188135 -5.197794 -0.265633 0.000000 0.000000 0.000003 
-9.044865 13.234505 1.380784 -15.252708 78.662460 -5.019760 -2.160963 12.030461 -50.660088 -12.751387 19.657867 42.072304 -3.174616 2.112351 1.354638 -8.407960 12.715468 -3.275741 -2.127731 -15.309895 -20.454155 -0.225396 -18.321520 81.824638 1.168444 -0.823416 -1.281945 -13.417125 -23.150183 -31.681702 0.953536 -3.277063 -6.025007 -3.720144 -1.289162 29.771564 1.981526 1.114529 12.631291 2.627508 1.718440 -31.337889 -83.133492 -73.056351 16.404776 20.931293 -35.722111 -6.974314 7.800169 -2.805687 0.083178 0.000000 0.000000 0.000000 74.764984 72.933716 41.802898 -22.380484 21.084867 -34.980980 -15.803633 -5.535079 -0.247444 0.000000 0.000000 0.000003 
-8.582102 13.253814 1.375227 -16.009581 78.725639 -5.274573 -2.026702 12.417017 -52.447693 -14.903449 18.832577 47.697243 -3.210826 2.093850 1.532655 -4.747168 12.239324 -4.424449 -2.625114 -15.602438 -18.731405 -0.864448 -17.897770 81.663857 1.234620 -0.797228 -1.323891 -12.973934 -22.290129 -30.482779 1.031325 -3.162407 -6.092645 -1.537026 -1.447425 29.155682 1.110382 1.826345 12.551258 4.980567 2.892664 -32.130939 -86.020287 -71.233009 21.569324 20.481386 -34.487461 -9.952066 7.904080 -1.169540 -0.036736 0.000000 0.000000 0.000000 76.794006 70.287155 43.107693 -22.213581 21.055408 -36.965687 -15.082997 -5.986721 -0.275203 0.000000 0.000000 0.000003 
-8.108243 13.300405 1.390545 -14.743326 79.047958 -3.570675 -2.403515 12.671417 -53.446556 -15.147251 19.655016 51.437679 -3.153885 2.082269 1.609208 -3.645555 12.123987 -4.783310 -3.468551 -15.511301 -17.255613 -1.494907 -17.370655 82.030449 1.321113 -0.795577 -1.220246 -11.516122 -21.436735 -28.376959 1.018182 -2.876429 -6.127120 -1.276109 -2.085419 28.689171 1.627698 1.624111 12.199314 4.946628 3.110579 -31.202717 -88.077858 -69.240112 26.799595 20.010216 -32.968235 -11.844362 7.925283 -0.789983 -0.064063 0.000000 0.000000 0.000000 78.577469 68.293465 43.524899 -21.686794 20.828112 -38.179482 -15.639134 -6.474926 -0.255975 0.000000 0.000000 0.000003 
-7.625435 13.354099 1.398971 -12.545284 79.557106 -1.045868 -3.036336 12.722279 -53.808613 -15.490544 20.372692 54.450577 -3.120849 2.069081 1.623527 -0.949620 11.481027 -5.456972 -4.581581 -15.161349 -16.012190 -1.802903 -16.774384 82.667130 1.433429 -0.799235 -1.075345 -8.669443 -21.166224 -25.462626 0.984147 -2.633825 -6.162036 -0.959999 -2.710083 28.496822 1.703121 1.743380 11.555222 6.297036 3.810585 -29.579973 -89.640526 -68.042648 31.823368 19.569435 -31.059380 -13.673945 7.469608 -0.051698 -0.109121 0.000000 0.000000 0.000000 79.966301 66.090973 45.288090 -21.618559 20.298151 -39.689312 -16.097813 -6.793923 -0.236590 0.000000 0.000000 0.000003 
-7.136471 13.432327 1.396847 -12.834898 80.075310 -0.522212 -3.096600 12.487105 -54.513371 -15.824590 20.870558 57.056969 -3.040745 2.033850 1.610603 0.999504 11.138981 -6.015428 -5.036983 -13.942576 -16.099794 -1.433188 -16.417101 83.753632 1.554679 -0.876216 -0.796048 -3.305171 -22.168264 -21.111889 0.949679 -2.357027 -6.228338 -0.383509 -2.854202 28.603535 1.096751 1.983310 11.027255 8.419829 3.842251 -28.435110 -91.665184 -67.742531 36.218273 17.836081 -28.763157 -13.030274 8.269993 -0.777623 -0.072462 0.000000 0.000000 0.000000 80.863670 64.232002 46.762886 -21.568495 19.436026 -41.446712 -16.626467 -7.134282 -0.211222 0.000000 0.000000 0.000003 
-6.670526 13.501952 1.377144 -15.472880 80.590347 -2.654320 -3.111491 12.329350 -54.841267 -15.373360 21.458687 59.290791 -2.932306 2.038786 1.617345 2.961947 10.466441 -6.414159 -4.905080 -12.331779 -16.057098 0.130782 -15.992431 84.990074 1.589163 -0.899831 -0.713361 5.034444 -25.744083 -15.894659 1.012903 -2.045210 -6.181756 2.083784 -2.135098 29.535553 -0.545620 2.566725 10.447926 11.865565 3.305775 -27.442999 -95.064583 -68.235733 40.556934 16.589102 -26.777452 -13.529354 8.478803 -0.336703 -0.105987 0.000000 0.000000 0.000000 80.515945 62.681873 48.390209 -21.551634 18.779493 -43.225037 -17.934229 -7.521407 -0.142635 0.000000 0.000000 0.000003 
